<svg width="205" height="206" viewBox="0 0 205 206" fill="none" xmlns="http://www.w3.org/2000/svg">
<path d="M102.8 205.199H102.351C46.1141 205.199 0.36084 159.432 0.36084 103.179V102.729C0.36084 46.4759 46.1141 0.709229 102.351 0.709229H102.8C159.037 0.709229 204.79 46.4759 204.79 102.729V103.179C204.79 159.432 159.037 205.199 102.8 205.199ZM102.351 7.63099C49.9268 7.63099 7.28056 50.2898 7.28056 102.729V103.179C7.28056 155.618 49.9268 198.277 102.351 198.277H102.8C155.224 198.277 197.871 155.618 197.871 103.179V102.729C197.871 50.2898 155.224 7.63099 102.8 7.63099H102.351Z" fill="#1000F2"/>
<path d="M121.83 131.849C96.5519 131.849 75.9865 111.271 75.9796 85.9854C75.9865 79.5759 81.204 74.3638 87.5978 74.3638C88.2552 74.3638 88.9056 74.4192 89.5284 74.53C90.8985 74.7584 92.1994 75.2221 93.3965 75.9212C93.5695 76.0251 93.6871 76.1911 93.7148 76.3849L96.3858 93.2256C96.4204 93.4194 96.3582 93.6201 96.2267 93.7655C94.7528 95.399 92.8706 96.5757 90.7739 97.1641L89.7637 97.4479L90.1442 98.4238C93.5902 107.201 100.607 114.212 109.388 117.673L110.364 118.061L110.647 117.05C111.236 114.953 112.412 113.07 114.045 111.596C114.163 111.485 114.322 111.43 114.481 111.43C114.516 111.43 114.55 111.43 114.592 111.437L131.427 114.109C131.628 114.143 131.794 114.254 131.898 114.427C132.59 115.624 133.053 116.933 133.289 118.303C133.399 118.912 133.448 119.556 133.448 120.227C133.448 126.63 128.237 131.842 121.83 131.849Z" fill="#1000F2"/>
<path d="M166.656 97.4063C165.292 81.9985 158.234 67.705 146.782 57.1632C135.261 46.559 120.314 40.7171 104.683 40.7171C70.3746 40.7171 42.4605 68.6395 42.4605 102.958C42.4605 114.475 45.6366 125.696 51.6498 135.469L38.2394 165.163L81.1763 160.588C88.6427 163.648 96.545 165.198 104.676 165.198C106.814 165.198 109.007 165.087 111.208 164.859C113.145 164.651 115.104 164.347 117.027 163.959C145.758 158.152 166.732 132.645 166.898 103.29V102.958C166.898 101.089 166.815 99.2198 166.649 97.4132L166.656 97.4063ZM82.8301 147.555L59.0747 150.088L66.1675 134.369L64.7489 132.465C64.6451 132.327 64.5413 132.188 64.4237 132.029C58.2651 123.522 55.0128 113.472 55.0128 102.965C55.0128 75.5682 77.2943 53.2801 104.683 53.2801C130.341 53.2801 152.09 73.3047 154.186 98.8668C154.297 100.237 154.359 101.615 154.359 102.971C154.359 103.359 154.352 103.74 154.345 104.148C153.82 127.066 137.814 146.53 115.422 151.486C113.713 151.867 111.962 152.157 110.218 152.344C108.405 152.552 106.544 152.656 104.696 152.656C98.1158 152.656 91.722 151.382 85.681 148.863C85.0098 148.593 84.3524 148.302 83.7366 148.004L82.8371 147.568L82.8301 147.555Z" fill="#1000F2"/>
</svg>
